<svg width="798" height="497" viewBox="0 0 798 497" fill="none" xmlns="http://www.w3.org/2000/svg">
<g clip-path="url(#clip0_102_4)">
<rect width="798" height="497" fill="#E7E7E7"/>
<g filter="url(#filter0_ddddd_102_4)">
<path d="M800.608 54.4075C801.043 50.9275 801.369 47.4475 801.369 43.75C801.369 40.0525 801.043 36.5725 800.608 33.0925L823.554 15.1488C825.62 13.5175 826.164 10.5813 824.859 8.18875L803.109 -29.4387C801.804 -31.8312 798.868 -32.7012 796.475 -31.8312L769.396 -20.9562C763.741 -25.3062 757.651 -28.895 751.018 -31.6137L746.885 -60.4325C746.559 -63.0425 744.275 -65 741.556 -65H698.056C695.338 -65 693.054 -63.0425 692.728 -60.4325L688.595 -31.6137C681.961 -28.895 675.871 -25.1975 670.216 -20.9562L643.138 -31.8312C640.636 -32.81 637.809 -31.8312 636.504 -29.4387L614.754 8.18875C613.34 10.5813 613.993 13.5175 616.059 15.1488L639.005 33.0925C638.57 36.5725 638.244 40.1613 638.244 43.75C638.244 47.3388 638.57 50.9275 639.005 54.4075L616.059 72.3513C613.993 73.9825 613.449 76.9188 614.754 79.3113L636.504 116.939C637.809 119.331 640.745 120.201 643.138 119.331L670.216 108.456C675.871 112.806 681.961 116.395 688.595 119.114L692.728 147.933C693.054 150.543 695.338 152.5 698.056 152.5H741.556C744.275 152.5 746.559 150.543 746.885 147.933L751.018 119.114C757.651 116.395 763.741 112.698 769.396 108.456L796.475 119.331C798.976 120.31 801.804 119.331 803.109 116.939L824.859 79.3113C826.164 76.9188 825.62 73.9825 823.554 72.3513L800.608 54.4075V54.4075ZM719.806 81.8125C698.818 81.8125 681.744 64.7388 681.744 43.75C681.744 22.7613 698.818 5.68751 719.806 5.68751C740.795 5.68751 757.869 22.7613 757.869 43.75C757.869 64.7388 740.795 81.8125 719.806 81.8125Z" fill="black"/>
</g>
<g filter="url(#filter1_ddddd_102_4)">
<path d="M800.377 223.702C800.566 221.966 800.7 220.23 800.67 218.389C800.64 216.547 800.449 214.817 800.204 213.087L811.486 203.965C812.502 203.135 812.749 201.669 812.08 200.488L800.942 181.925C800.273 180.744 798.804 180.335 797.619 180.788L784.222 186.423C781.37 184.303 778.308 182.565 774.982 181.265L772.69 166.946C772.507 165.649 771.354 164.693 770 164.715L748.336 165.068C746.982 165.09 745.86 166.083 745.719 167.386L743.895 181.771C740.613 183.179 737.61 185.07 734.828 187.228L721.254 182.032C720.001 181.565 718.601 182.075 717.97 183.277L707.444 202.193C706.759 203.396 707.108 204.853 708.15 205.649L719.723 214.399C719.535 216.136 719.402 217.925 719.431 219.713C719.46 221.5 719.652 223.285 719.896 225.014L708.614 234.137C707.599 234.966 707.352 236.433 708.021 237.614L719.158 256.176C719.828 257.357 721.297 257.767 722.481 257.314L735.879 251.678C738.73 253.799 741.793 255.536 745.118 256.837L747.41 271.155C747.594 272.452 748.747 273.409 750.101 273.387L771.765 273.034C773.119 273.012 774.24 272.018 774.382 270.716L776.206 256.33C779.488 254.922 782.49 253.031 785.272 250.873L798.846 256.069C800.1 256.536 801.5 256.026 802.131 254.824L812.657 235.908C813.288 234.706 812.993 233.248 811.951 232.452L800.377 223.702V223.702ZM760.359 238.006C749.907 238.177 741.265 229.812 741.095 219.36C740.924 208.907 749.289 200.265 759.741 200.095C770.194 199.924 778.836 208.289 779.006 218.742C779.177 229.194 770.812 237.836 760.359 238.006Z" fill="black"/>
</g>
<g filter="url(#filter2_ddddd_102_4)">
<path d="M118.193 434.762C118.468 432.554 118.675 430.346 118.675 428C118.675 425.654 118.468 423.446 118.193 421.238L132.726 409.853C134.035 408.818 134.379 406.955 133.553 405.437L119.777 381.563C118.95 380.045 117.091 379.493 115.575 380.045L98.4243 386.945C94.8426 384.185 90.9853 381.908 86.7836 380.183L84.1662 361.898C83.9596 360.242 82.5131 359 80.7911 359H53.2393C51.5173 359 50.0708 360.242 49.8642 361.898L47.2468 380.183C43.0451 381.908 39.1879 384.254 35.6061 386.945L18.4551 380.045C16.8709 379.424 15.08 380.045 14.2535 381.563L0.477553 405.437C-0.417881 406.955 -0.00460324 408.818 1.30411 409.853L15.8377 421.238C15.5622 423.446 15.3555 425.723 15.3555 428C15.3555 430.277 15.5622 432.554 15.8377 434.762L1.30411 446.147C-0.00460324 447.182 -0.349002 449.045 0.477553 450.563L14.2535 474.437C15.08 475.955 16.9398 476.507 18.4551 475.955L35.6061 469.055C39.1879 471.815 43.0451 474.092 47.2468 475.817L49.8642 494.102C50.0708 495.758 51.5173 497 53.2393 497H80.7911C82.5131 497 83.9596 495.758 84.1662 494.102L86.7836 475.817C90.9853 474.092 94.8426 471.746 98.4243 469.055L115.575 475.955C117.16 476.576 118.95 475.955 119.777 474.437L133.553 450.563C134.379 449.045 134.035 447.182 132.726 446.147L118.193 434.762V434.762ZM67.0152 452.15C53.7215 452.15 42.9074 441.317 42.9074 428C42.9074 414.683 53.7215 403.85 67.0152 403.85C80.309 403.85 91.1231 414.683 91.1231 428C91.1231 441.317 80.309 452.15 67.0152 452.15Z" fill="black"/>
</g>
</g>
<defs>
<filter id="filter0_ddddd_102_4" x="576" y="-72" width="287.565" height="358.5" filterUnits="userSpaceOnUse" color-interpolation-filters="sRGB">
<feFlood flood-opacity="0" result="BackgroundImageFix"/>
<feColorMatrix in="SourceAlpha" type="matrix" values="0 0 0 0 0 0 0 0 0 0 0 0 0 0 0 0 0 0 127 0" result="hardAlpha"/>
<feOffset/>
<feColorMatrix type="matrix" values="0 0 0 0 0 0 0 0 0 0 0 0 0 0 0 0 0 0 0.1 0"/>
<feBlend mode="normal" in2="BackgroundImageFix" result="effect1_dropShadow_102_4"/>
<feColorMatrix in="SourceAlpha" type="matrix" values="0 0 0 0 0 0 0 0 0 0 0 0 0 0 0 0 0 0 127 0" result="hardAlpha"/>
<feOffset dy="6"/>
<feGaussianBlur stdDeviation="6.5"/>
<feColorMatrix type="matrix" values="0 0 0 0 0 0 0 0 0 0 0 0 0 0 0 0 0 0 0.1 0"/>
<feBlend mode="normal" in2="effect1_dropShadow_102_4" result="effect2_dropShadow_102_4"/>
<feColorMatrix in="SourceAlpha" type="matrix" values="0 0 0 0 0 0 0 0 0 0 0 0 0 0 0 0 0 0 127 0" result="hardAlpha"/>
<feOffset dy="24"/>
<feGaussianBlur stdDeviation="12"/>
<feColorMatrix type="matrix" values="0 0 0 0 0 0 0 0 0 0 0 0 0 0 0 0 0 0 0.09 0"/>
<feBlend mode="normal" in2="effect2_dropShadow_102_4" result="effect3_dropShadow_102_4"/>
<feColorMatrix in="SourceAlpha" type="matrix" values="0 0 0 0 0 0 0 0 0 0 0 0 0 0 0 0 0 0 127 0" result="hardAlpha"/>
<feOffset dy="54"/>
<feGaussianBlur stdDeviation="16"/>
<feColorMatrix type="matrix" values="0 0 0 0 0 0 0 0 0 0 0 0 0 0 0 0 0 0 0.05 0"/>
<feBlend mode="normal" in2="effect3_dropShadow_102_4" result="effect4_dropShadow_102_4"/>
<feColorMatrix in="SourceAlpha" type="matrix" values="0 0 0 0 0 0 0 0 0 0 0 0 0 0 0 0 0 0 127 0" result="hardAlpha"/>
<feOffset dy="96"/>
<feGaussianBlur stdDeviation="19"/>
<feColorMatrix type="matrix" values="0 0 0 0 0 0 0 0 0 0 0 0 0 0 0 0 0 0 0.01 0"/>
<feBlend mode="normal" in2="effect4_dropShadow_102_4" result="effect5_dropShadow_102_4"/>
<feBlend mode="normal" in="SourceGraphic" in2="effect5_dropShadow_102_4" result="shape"/>
</filter>
<filter id="filter1_ddddd_102_4" x="671" y="149" width="178.101" height="216.101" filterUnits="userSpaceOnUse" color-interpolation-filters="sRGB">
<feFlood flood-opacity="0" result="BackgroundImageFix"/>
<feColorMatrix in="SourceAlpha" type="matrix" values="0 0 0 0 0 0 0 0 0 0 0 0 0 0 0 0 0 0 127 0" result="hardAlpha"/>
<feOffset/>
<feColorMatrix type="matrix" values="0 0 0 0 0 0 0 0 0 0 0 0 0 0 0 0 0 0 0.1 0"/>
<feBlend mode="normal" in2="BackgroundImageFix" result="effect1_dropShadow_102_4"/>
<feColorMatrix in="SourceAlpha" type="matrix" values="0 0 0 0 0 0 0 0 0 0 0 0 0 0 0 0 0 0 127 0" result="hardAlpha"/>
<feOffset dy="4"/>
<feGaussianBlur stdDeviation="4"/>
<feColorMatrix type="matrix" values="0 0 0 0 0 0 0 0 0 0 0 0 0 0 0 0 0 0 0.1 0"/>
<feBlend mode="normal" in2="effect1_dropShadow_102_4" result="effect2_dropShadow_102_4"/>
<feColorMatrix in="SourceAlpha" type="matrix" values="0 0 0 0 0 0 0 0 0 0 0 0 0 0 0 0 0 0 127 0" result="hardAlpha"/>
<feOffset dy="14"/>
<feGaussianBlur stdDeviation="7"/>
<feColorMatrix type="matrix" values="0 0 0 0 0 0 0 0 0 0 0 0 0 0 0 0 0 0 0.09 0"/>
<feBlend mode="normal" in2="effect2_dropShadow_102_4" result="effect3_dropShadow_102_4"/>
<feColorMatrix in="SourceAlpha" type="matrix" values="0 0 0 0 0 0 0 0 0 0 0 0 0 0 0 0 0 0 127 0" result="hardAlpha"/>
<feOffset dy="32"/>
<feGaussianBlur stdDeviation="9.5"/>
<feColorMatrix type="matrix" values="0 0 0 0 0 0 0 0 0 0 0 0 0 0 0 0 0 0 0.05 0"/>
<feBlend mode="normal" in2="effect3_dropShadow_102_4" result="effect4_dropShadow_102_4"/>
<feColorMatrix in="SourceAlpha" type="matrix" values="0 0 0 0 0 0 0 0 0 0 0 0 0 0 0 0 0 0 127 0" result="hardAlpha"/>
<feOffset dy="57"/>
<feGaussianBlur stdDeviation="11.5"/>
<feColorMatrix type="matrix" values="0 0 0 0 0 0 0 0 0 0 0 0 0 0 0 0 0 0 0.01 0"/>
<feBlend mode="normal" in2="effect4_dropShadow_102_4" result="effect5_dropShadow_102_4"/>
<feBlend mode="normal" in="SourceGraphic" in2="effect5_dropShadow_102_4" result="shape"/>
</filter>
<filter id="filter2_ddddd_102_4" x="-24" y="355" width="182" height="227" filterUnits="userSpaceOnUse" color-interpolation-filters="sRGB">
<feFlood flood-opacity="0" result="BackgroundImageFix"/>
<feColorMatrix in="SourceAlpha" type="matrix" values="0 0 0 0 0 0 0 0 0 0 0 0 0 0 0 0 0 0 127 0" result="hardAlpha"/>
<feOffset/>
<feColorMatrix type="matrix" values="0 0 0 0 0.145098 0 0 0 0 0.054902 0 0 0 0 0.145098 0 0 0 0.1 0"/>
<feBlend mode="normal" in2="BackgroundImageFix" result="effect1_dropShadow_102_4"/>
<feColorMatrix in="SourceAlpha" type="matrix" values="0 0 0 0 0 0 0 0 0 0 0 0 0 0 0 0 0 0 127 0" result="hardAlpha"/>
<feOffset dy="4"/>
<feGaussianBlur stdDeviation="4"/>
<feColorMatrix type="matrix" values="0 0 0 0 0.145098 0 0 0 0 0.054902 0 0 0 0 0.145098 0 0 0 0.1 0"/>
<feBlend mode="normal" in2="effect1_dropShadow_102_4" result="effect2_dropShadow_102_4"/>
<feColorMatrix in="SourceAlpha" type="matrix" values="0 0 0 0 0 0 0 0 0 0 0 0 0 0 0 0 0 0 127 0" result="hardAlpha"/>
<feOffset dy="15"/>
<feGaussianBlur stdDeviation="7.5"/>
<feColorMatrix type="matrix" values="0 0 0 0 0.145098 0 0 0 0 0.054902 0 0 0 0 0.145098 0 0 0 0.09 0"/>
<feBlend mode="normal" in2="effect2_dropShadow_102_4" result="effect3_dropShadow_102_4"/>
<feColorMatrix in="SourceAlpha" type="matrix" values="0 0 0 0 0 0 0 0 0 0 0 0 0 0 0 0 0 0 127 0" result="hardAlpha"/>
<feOffset dy="34"/>
<feGaussianBlur stdDeviation="10"/>
<feColorMatrix type="matrix" values="0 0 0 0 0.145098 0 0 0 0 0.054902 0 0 0 0 0.145098 0 0 0 0.05 0"/>
<feBlend mode="normal" in2="effect3_dropShadow_102_4" result="effect4_dropShadow_102_4"/>
<feColorMatrix in="SourceAlpha" type="matrix" values="0 0 0 0 0 0 0 0 0 0 0 0 0 0 0 0 0 0 127 0" result="hardAlpha"/>
<feOffset dy="61"/>
<feGaussianBlur stdDeviation="12"/>
<feColorMatrix type="matrix" values="0 0 0 0 0.145098 0 0 0 0 0.054902 0 0 0 0 0.145098 0 0 0 0.01 0"/>
<feBlend mode="normal" in2="effect4_dropShadow_102_4" result="effect5_dropShadow_102_4"/>
<feBlend mode="normal" in="SourceGraphic" in2="effect5_dropShadow_102_4" result="shape"/>
</filter>
<clipPath id="clip0_102_4">
<rect width="798" height="497" fill="white"/>
</clipPath>
</defs>
</svg>
