<svg width="1440" height="1108" viewBox="0 0 1440 1108" fill="none" xmlns="http://www.w3.org/2000/svg">
<rect width="1440" height="1108" fill="#EFF2F5"/>
<path d="M1339.31 242.603C1334.27 268.908 1272.59 257.301 1276.7 250.271C1280.82 243.241 1300.63 269.224 1286.25 286.621C1280.15 294.009 1263.81 293.625 1265.36 289.34C1266.9 285.055 1283.87 292.148 1267.96 309.417M1267.96 309.417L1267.55 305.255M1267.96 309.417L1271.95 308.528" stroke="black" stroke-width="2" stroke-linecap="round" stroke-linejoin="round"/>
<path d="M66.8982 177.311C125.895 193.695 87.9572 332.072 72.7068 321.389C57.4563 310.706 120.346 270.408 157.307 306.407C173.002 321.693 169.083 358.846 159.609 354.521C150.134 350.196 169.455 312.871 205.838 352.337M205.838 352.337L196.278 352.498M205.838 352.337L204.557 343.077" stroke="black" stroke-opacity="0.3" stroke-width="2" stroke-linecap="round" stroke-linejoin="round"/>
</svg>
