<svg width="40" height="39" viewBox="0 0 40 39" fill="none" xmlns="http://www.w3.org/2000/svg">
<rect x="0.71875" y="0.269531" width="38.536" height="38.536" rx="19.268" fill="white"/>
<path d="M26.787 19.5388C26.787 19.6891 26.7273 19.8332 26.621 19.9395C26.5147 20.0458 26.3706 20.1055 26.2203 20.1055H20.5532V25.7725C20.5532 25.9228 20.4935 26.067 20.3872 26.1733C20.281 26.2795 20.1368 26.3392 19.9865 26.3392C19.8362 26.3392 19.6921 26.2795 19.5858 26.1733C19.4795 26.067 19.4198 25.9228 19.4198 25.7725V20.1055H13.7527C13.6024 20.1055 13.4583 20.0458 13.352 19.9395C13.2457 19.8332 13.186 19.6891 13.186 19.5388C13.186 19.3885 13.2457 19.2443 13.352 19.138C13.4583 19.0318 13.6024 18.9721 13.7527 18.9721H19.4198V13.305C19.4198 13.1547 19.4795 13.0105 19.5858 12.9043C19.6921 12.798 19.8362 12.7383 19.9865 12.7383C20.1368 12.7383 20.281 12.798 20.3872 12.9043C20.4935 13.0105 20.5532 13.1547 20.5532 13.305V18.9721H26.2203C26.3706 18.9721 26.5147 19.0318 26.621 19.138C26.7273 19.2443 26.787 19.3885 26.787 19.5388Z" fill="black"/>
</svg>
