<svg width="54" height="54" viewBox="0 0 54 54" fill="none" xmlns="http://www.w3.org/2000/svg">
<circle cx="27" cy="27" r="26.5" fill="white" stroke="#E6E6E6"/>
<path d="M20.334 23C20.334 21.9966 20.854 20.9466 21.6673 20.3333C21.6673 20.8966 22.1273 21.6666 23.0007 21.6666C23.5311 21.6666 24.0398 21.8774 24.4149 22.2524C24.7899 22.6275 25.0007 23.1362 25.0007 23.6666C25.0007 23.924 24.948 24.168 24.8593 24.394C25.3538 24.7864 25.8408 25.1883 26.32 25.5993L24.9333 26.986C24.5225 26.5067 24.1206 26.0197 23.728 25.5253C23.4966 25.6177 23.2498 25.6656 23.0007 25.6666C21.5273 25.6666 20.334 24.4733 20.334 23ZM28.4353 27.5653L29.3293 26.6713C29.7433 26.8844 30.2017 26.997 30.6673 27C31.463 27 32.226 26.6839 32.7886 26.1213C33.3512 25.5587 33.6673 24.7956 33.6673 24C33.6673 23.5166 33.542 23.066 33.3387 22.662L31.0007 25L29.6673 23.6666L32.0053 21.3286C31.5913 21.1155 31.1329 21.0029 30.6673 21C29.8717 21 29.1086 21.3161 28.546 21.8787C27.9834 22.4413 27.6673 23.2043 27.6673 24C27.6673 24.4833 27.7927 24.934 27.996 25.338L21.0007 32.3333L22.334 33.6666L26.8993 29.1013C28.1549 30.3896 29.4854 31.6026 30.884 32.734L31.834 33.5L32.834 32.5L32.068 31.55C30.9366 30.1514 29.7236 28.8209 28.4353 27.5653Z" fill="black"/>
</svg>
