<svg width="54" height="54" viewBox="0 0 54 54" fill="none" xmlns="http://www.w3.org/2000/svg">
<circle cx="27" cy="27" r="26.5" fill="white" stroke="#E6E6E6"/>
<path d="M33.75 26.25C33.75 30.4125 30.87 34.305 27 35.25C23.13 34.305 20.25 30.4125 20.25 26.25V21.75L27 18.75L33.75 21.75V26.25ZM27 33.75C29.8125 33 32.25 29.655 32.25 26.415V22.725L27 20.385L21.75 22.725V26.415C21.75 29.655 24.1875 33 27 33.75ZM29.1 26.25V25.125C29.1 24.075 28.05 23.25 27 23.25C25.95 23.25 24.9 24.075 24.9 25.125V26.25C24.45 26.25 24 26.7 24 27.15V29.775C24 30.3 24.45 30.75 24.9 30.75H29.025C29.55 30.75 30 30.3 30 29.85V27.225C30 26.7 29.55 26.25 29.1 26.25ZM28.125 26.25H25.875V25.125C25.875 24.525 26.4 24.15 27 24.15C27.6 24.15 28.125 24.525 28.125 25.125V26.25Z" fill="black"/>
</svg>
