<svg width="62" height="62" viewBox="0 0 62 62" fill="none" xmlns="http://www.w3.org/2000/svg">
<rect x="0.5" y="0.5" width="61" height="61" rx="30.5" fill="white" stroke="#E3E3E3"/>
<path fill-rule="evenodd" clip-rule="evenodd" d="M33.5465 20.0503L34.4235 20.9274C34.7631 21.2646 35.2166 21.4517 35.699 21.4517H36.9324C38.9253 21.4517 40.5463 23.0727 40.5463 25.0656V26.2979C40.5463 26.779 40.7335 27.2337 41.073 27.5757L41.9345 28.4384C42.6172 29.1163 42.9964 30.0221 43 30.988C43.0035 31.9539 42.6304 32.8621 41.9501 33.5473L41.0706 34.4243C40.7335 34.7639 40.5463 35.2162 40.5463 35.6986V36.9332C40.5463 38.9249 38.9253 40.5459 36.9336 40.5459H35.6966C35.2214 40.5459 34.7571 40.7379 34.4199 41.0726L33.5585 41.9341C32.8542 42.6432 31.9255 42.9983 30.9968 42.9983C30.0765 42.9983 29.1563 42.6504 28.452 41.9521C28.4424 41.9425 28.4328 41.9329 28.4232 41.9221L27.5713 41.0714C27.2317 40.7343 26.7782 40.5471 26.2959 40.5459H25.0648C23.0719 40.5459 21.4521 38.9249 21.4521 36.9332V35.6962C21.4521 35.2138 21.2638 34.7615 20.9254 34.4207L20.0627 33.5593C18.6613 32.165 18.6445 29.895 20.0207 28.4792L20.0531 28.4468L20.9266 27.5709C21.2638 27.2313 21.4521 26.7766 21.4521 26.2955V25.0656C21.4521 23.0739 23.0719 21.4529 25.0636 21.4517H26.2995C26.7806 21.4517 27.2341 21.2634 27.5785 20.9238L28.4364 20.0635C29.839 18.6513 32.1319 18.6441 33.5465 20.0503ZM29.7118 21.3341L28.8491 22.1992C28.1604 22.8795 27.2569 23.2515 26.2995 23.2515H25.0648C24.0654 23.2527 23.2519 24.0662 23.2519 25.0656V26.2955C23.2519 27.2565 22.8787 28.16 22.202 28.8415L21.3501 29.6946C21.3417 29.7042 21.3333 29.7114 21.3249 29.7198C20.6206 30.4289 20.6242 31.5795 21.3333 32.2838L22.1996 33.1501C22.8787 33.8316 23.2519 34.7351 23.2519 35.6962V36.9332C23.2519 37.9326 24.0642 38.7461 25.0648 38.7461H26.2971C27.2593 38.7473 28.1628 39.1205 28.8431 39.7984L29.7082 40.6611L29.7322 40.6875C30.4401 41.3786 31.5799 41.3702 32.283 40.6635L33.1493 39.7996C33.8212 39.1289 34.7499 38.7461 35.6966 38.7461H36.9324C37.933 38.7461 38.7465 37.9326 38.7465 36.9332V35.6986C38.7465 34.7375 39.1185 33.834 39.7976 33.1537L40.6615 32.2886C41.013 31.9359 41.2014 31.4787 41.2002 30.994C41.199 30.5105 41.0082 30.0557 40.6639 29.7126L39.7988 28.8463C39.1185 28.1612 38.7465 27.2589 38.7465 26.2979V25.0656C38.7465 24.065 37.933 23.2515 36.9324 23.2515H35.699C34.7379 23.2515 33.8344 22.8783 33.1541 22.2028L32.2878 21.3353C31.5667 20.6214 30.4161 20.625 29.7118 21.3341ZM34.0019 32.797C34.6654 32.797 35.2017 33.3333 35.2017 33.9968C35.2017 34.6603 34.6654 35.1967 34.0019 35.1967C33.3384 35.1967 32.7961 34.6603 32.7961 33.9968C32.7961 33.3333 33.3276 32.797 33.9911 32.797H34.0019ZM34.7192 27.2793C35.0707 27.6309 35.0707 28.2008 34.7192 28.5523L28.5508 34.7195C28.3757 34.8959 28.1453 34.9835 27.9149 34.9835C27.6845 34.9835 27.4542 34.8959 27.279 34.7195C26.9275 34.3679 26.9275 33.7992 27.279 33.4477L33.4462 27.2793C33.7977 26.9278 34.3676 26.9278 34.7192 27.2793ZM28.0027 26.7978C28.6663 26.7978 29.2026 27.3342 29.2026 27.9977C29.2026 28.6612 28.6663 29.1975 28.0027 29.1975C27.3392 29.1975 26.7969 28.6612 26.7969 27.9977C26.7969 27.3342 27.3284 26.7978 27.9919 26.7978H28.0027Z" fill="black"/>
</svg>
