<svg width="62" height="62" viewBox="0 0 62 62" fill="none" xmlns="http://www.w3.org/2000/svg">
<rect x="0.5" y="0.5" width="61" height="61" rx="30.5" fill="white" stroke="#E3E3E3"/>
<path d="M39.6663 40.75V38.5833C39.6663 37.4341 39.2098 36.3319 38.3971 35.5192C37.5845 34.7065 36.4823 34.25 35.333 34.25H26.6663C25.5171 34.25 24.4149 34.7065 23.6022 35.5192C22.7896 36.3319 22.333 37.4341 22.333 38.5833V40.75" stroke="black" stroke-width="2" stroke-linecap="round" stroke-linejoin="round"/>
<path d="M31.0003 29.9167C33.3936 29.9167 35.3337 27.9766 35.3337 25.5833C35.3337 23.1901 33.3936 21.25 31.0003 21.25C28.6071 21.25 26.667 23.1901 26.667 25.5833C26.667 27.9766 28.6071 29.9167 31.0003 29.9167Z" stroke="black" stroke-width="2" stroke-linecap="round" stroke-linejoin="round"/>
</svg>
