<svg width="54" height="54" viewBox="0 0 54 54" fill="none" xmlns="http://www.w3.org/2000/svg">
<circle cx="27" cy="27" r="26.5" fill="white" stroke="#E6E6E6"/>
<path d="M33 23.25C33 23.3531 32.9156 23.4375 32.8125 23.4375H31.5C31.3969 23.4375 31.3125 23.3531 31.3125 23.25V21.9375H27.8438V23.25C27.8438 23.3531 27.7594 23.4375 27.6562 23.4375H26.3438C26.2406 23.4375 26.1562 23.3531 26.1562 23.25V21.9375H22.6875V23.25C22.6875 23.3531 22.6031 23.4375 22.5 23.4375H21.1875C21.0844 23.4375 21 23.3531 21 23.25V21.9375H18.1875V33.5625H35.8125V21.9375H33V23.25ZM24.9375 31.125C24.9375 31.2281 24.8531 31.3125 24.75 31.3125H20.4375C20.3344 31.3125 20.25 31.2281 20.25 31.125V30C20.25 29.8969 20.3344 29.8125 20.4375 29.8125H24.75C24.8531 29.8125 24.9375 29.8969 24.9375 30V31.125ZM24.9375 27.9375C24.9375 28.0406 24.8531 28.125 24.75 28.125H20.4375C20.3344 28.125 20.25 28.0406 20.25 27.9375V26.8125C20.25 26.7094 20.3344 26.625 20.4375 26.625H24.75C24.8531 26.625 24.9375 26.7094 24.9375 26.8125V27.9375ZM33.7125 25.8L29.8453 31.1602C29.8108 31.2081 29.7654 31.2471 29.7128 31.274C29.6602 31.3009 29.602 31.315 29.543 31.315C29.4839 31.315 29.4257 31.3009 29.3731 31.274C29.3206 31.2471 29.2751 31.2081 29.2406 31.1602L26.5664 27.4523C26.4773 27.3281 26.5664 27.1547 26.7188 27.1547H28.0055C28.125 27.1547 28.2375 27.2109 28.3078 27.3094L29.5453 29.0227L31.9734 25.6547C32.0438 25.5586 32.1562 25.5 32.2734 25.5023H33.5602C33.7125 25.5023 33.8016 25.6758 33.7125 25.8Z" fill="black" fill-opacity="0.15"/>
<path d="M31.9734 25.6547L29.5453 29.0227L28.3078 27.3094C28.2375 27.211 28.125 27.1547 28.0055 27.1547H26.7188C26.5664 27.1547 26.4773 27.3282 26.5664 27.4524L29.2406 31.1602C29.2751 31.2081 29.3206 31.2471 29.3731 31.274C29.4257 31.301 29.4839 31.315 29.543 31.315C29.602 31.315 29.6602 31.301 29.7128 31.274C29.7654 31.2471 29.8108 31.2081 29.8453 31.1602L33.7125 25.8C33.8016 25.6758 33.7125 25.5024 33.5602 25.5024H32.2734C32.1562 25.5 32.0438 25.5586 31.9734 25.6547ZM24.75 26.625H20.4375C20.3344 26.625 20.25 26.7094 20.25 26.8125V27.9375C20.25 28.0407 20.3344 28.125 20.4375 28.125H24.75C24.8531 28.125 24.9375 28.0407 24.9375 27.9375V26.8125C24.9375 26.7094 24.8531 26.625 24.75 26.625Z" fill="black"/>
<path d="M36.75 20.25H33V18.9375C33 18.8344 32.9156 18.75 32.8125 18.75H31.5C31.3969 18.75 31.3125 18.8344 31.3125 18.9375V20.25H27.8438V18.9375C27.8438 18.8344 27.7594 18.75 27.6562 18.75H26.3438C26.2406 18.75 26.1562 18.8344 26.1562 18.9375V20.25H22.6875V18.9375C22.6875 18.8344 22.6031 18.75 22.5 18.75H21.1875C21.0844 18.75 21 18.8344 21 18.9375V20.25H17.25C16.8352 20.25 16.5 20.5852 16.5 21V34.5C16.5 34.9148 16.8352 35.25 17.25 35.25H36.75C37.1648 35.25 37.5 34.9148 37.5 34.5V21C37.5 20.5852 37.1648 20.25 36.75 20.25ZM35.8125 33.5625H18.1875V21.9375H21V23.25C21 23.3531 21.0844 23.4375 21.1875 23.4375H22.5C22.6031 23.4375 22.6875 23.3531 22.6875 23.25V21.9375H26.1562V23.25C26.1562 23.3531 26.2406 23.4375 26.3438 23.4375H27.6562C27.7594 23.4375 27.8438 23.3531 27.8438 23.25V21.9375H31.3125V23.25C31.3125 23.3531 31.3969 23.4375 31.5 23.4375H32.8125C32.9156 23.4375 33 23.3531 33 23.25V21.9375H35.8125V33.5625Z" fill="black"/>
<path d="M24.75 29.8125H20.4375C20.3344 29.8125 20.25 29.8969 20.25 30V31.125C20.25 31.2281 20.3344 31.3125 20.4375 31.3125H24.75C24.8531 31.3125 24.9375 31.2281 24.9375 31.125V30C24.9375 29.8969 24.8531 29.8125 24.75 29.8125Z" fill="black"/>
</svg>
