<svg width="62" height="62" viewBox="0 0 62 62" fill="none" xmlns="http://www.w3.org/2000/svg">
<rect x="0.5" y="0.5" width="61" height="61" rx="30.5" fill="white" stroke="#E3E3E3"/>
<path d="M31.7302 42H30.0683V39.6736C25.9388 39.3195 24 37.069 24 34.1103V33.9586H25.8129V34.2874C25.8129 36.7149 27.3237 38.0299 31.277 38.0299C34.6511 38.0299 36.187 37.0943 36.187 35.1724C36.187 33.2759 35.054 32.5931 32.5863 32.0874L29.0108 31.4046C26.2662 30.8736 24.0755 29.7103 24.0755 26.9034C24.0755 24.7287 25.8129 22.554 30.0683 22.3011V20H31.7302V22.3011C35.8849 22.6046 37.7482 25.0069 37.7482 27.8897V28.0414H35.9353V27.7379C35.9353 25.2851 34.4245 23.9701 30.7482 23.9701C27.3993 23.9701 25.8885 24.931 25.8885 26.777C25.8885 28.6989 26.9964 29.2805 29.4892 29.8115L33.0396 30.5195C36.0612 31.1011 38 32.3908 38 35.0207C38 37.3724 36.0863 39.5724 31.7302 39.7241V42Z" fill="black"/>
</svg>
