<svg width="62" height="62" viewBox="0 0 62 62" fill="none" xmlns="http://www.w3.org/2000/svg">
<rect x="0.5" y="0.5" width="61" height="61" rx="30.5" fill="white" stroke="#E3E3E3"/>
<path fill-rule="evenodd" clip-rule="evenodd" d="M31.5017 19.9993C34.5762 19.9993 37.4655 21.1947 39.6357 23.366C44.1217 27.8519 44.1217 35.1502 39.6357 39.6362C37.4366 41.8364 34.4756 43.0007 31.476 43.0007C29.8409 43.0007 28.195 42.655 26.6551 41.9423C26.2014 41.7604 25.7765 41.5892 25.4715 41.5892C25.1205 41.5913 24.6486 41.754 24.1927 41.9113C23.2574 42.2323 22.0931 42.6325 21.2317 41.7743C20.3735 40.915 20.7694 39.7539 21.0883 38.8197C21.2456 38.3595 21.4072 37.8844 21.4072 37.5248C21.4072 37.2295 21.2649 36.8528 21.0466 36.3102C19.0422 31.9816 19.9689 26.7647 23.3687 23.367C25.539 21.1957 28.4272 19.9993 31.5017 19.9993ZM31.5028 21.6045C28.8564 21.6045 26.3704 22.634 24.5031 24.5024C21.5773 27.426 20.7812 31.9152 22.5201 35.6746C22.7705 36.2942 23.0124 36.8977 23.0124 37.5248C23.0124 38.1508 22.7973 38.7811 22.6079 39.3376C22.4516 39.7956 22.2151 40.4869 22.3671 40.6389C22.5158 40.793 23.2114 40.5501 23.6705 40.3928C24.2216 40.2044 24.8466 39.9882 25.4662 39.984C26.0869 39.984 26.6722 40.2194 27.2918 40.4687C31.0876 42.2237 35.5767 41.4254 38.5014 38.5018C42.3603 34.6408 42.3603 28.3602 38.5014 24.5014C36.633 22.6329 34.1481 21.6045 31.5028 21.6045ZM35.7265 30.8747C36.3172 30.8747 36.7966 31.3531 36.7966 31.9449C36.7966 32.5366 36.3172 33.015 35.7265 33.015C35.1357 33.015 34.6521 32.5366 34.6521 31.9449C34.6521 31.3531 35.1261 30.8747 35.7168 30.8747H35.7265ZM31.4365 30.8747C32.0272 30.8747 32.5067 31.3531 32.5067 31.9449C32.5067 32.5366 32.0272 33.015 31.4365 33.015C30.8458 33.015 30.3621 32.5366 30.3621 31.9449C30.3621 31.3531 30.8351 30.8747 31.4269 30.8747H31.4365ZM27.1462 30.8747C27.7369 30.8747 28.2163 31.3531 28.2163 31.9449C28.2163 32.5366 27.7369 33.015 27.1462 33.015C26.5555 33.015 26.0718 32.5366 26.0718 31.9449C26.0718 31.3531 26.5458 30.8747 27.1365 30.8747H27.1462Z" fill="black"/>
</svg>
