<svg width="180" height="45" viewBox="0 0 180 45" fill="none" xmlns="http://www.w3.org/2000/svg">
<path d="M38.9112 9.20508H46.5231C51.9282 9.20508 55.5434 11.033 55.5434 17.122C55.5434 20.8898 53.9824 22.9847 51.0892 23.4398C54.7045 24.1237 56.418 26.7144 56.418 31.0517C56.418 36.9525 53.5248 40.0339 47.8146 40.0339H38.9087V9.20508H38.9112ZM46.4468 21.8051C49.7977 21.8051 50.6723 20.3203 50.6723 17.1983C50.6723 14.0763 49.0731 13.1254 45.6485 13.1254H44.507V21.8051H46.4494H46.4468ZM46.6756 36.0805C50.1002 36.0805 51.0536 34.4814 51.0536 31.0186C51.0536 27.3652 49.8358 25.6898 46.485 25.6898H44.5045V36.0805H46.6731H46.6756Z" fill="#004C99"/>
<path d="M57.7905 30.3692V18.7989C57.7905 12.5573 60.0736 8.86328 66.6965 8.86328C73.3193 8.86328 75.5643 12.5548 75.5643 18.7989V30.3692C75.5643 36.5726 73.2812 40.4574 66.6965 40.4574C60.1117 40.4574 57.7905 36.6133 57.7905 30.3692ZM69.8566 31.7014V17.5023C69.8566 14.9141 69.4371 12.9718 66.6965 12.9718C63.9558 12.9718 63.4982 14.9141 63.4982 17.5023V31.7014C63.4982 34.2514 63.9176 36.3082 66.6965 36.3082C69.4753 36.3082 69.8566 34.2514 69.8566 31.7014Z" fill="#004C99"/>
<path d="M77.3945 30.3692V18.7989C77.3945 12.5573 79.6776 8.86328 86.303 8.86328C92.9284 8.86328 95.1708 12.5548 95.1708 18.7989V30.3692C95.1708 36.5726 92.8877 40.4574 86.303 40.4574C79.7183 40.4574 77.3945 36.6133 77.3945 30.3692ZM89.4606 31.7014V17.5023C89.4606 14.9141 89.0411 12.9718 86.3005 12.9718C83.5598 12.9718 83.1022 14.9141 83.1022 17.5023V31.7014C83.1022 34.2514 83.5216 36.3082 86.3005 36.3082C89.0793 36.3082 89.4606 34.2514 89.4606 31.7014Z" fill="#004C99"/>
<path d="M97.4952 9.20508H103.091V22.7559L109.218 9.20508H114.585L108.684 22.9466L115.193 40.0364H109.597L104.459 26.028L103.088 28.3491V40.0339H97.4927V9.20508H97.4952Z" fill="#004C99"/>
<path d="M119.763 13.3542H114.854V9.20508H130.195V13.3542H125.4V40.0364H119.766V13.3542H119.763Z" fill="#31C580"/>
<path d="M131.336 9.20508H136.894V40.0364H131.336V9.20508Z" fill="#31C580"/>
<path d="M140.28 9.20508H146.105L150.483 30.5585L155.014 9.20508H160.686L161.258 40.0364H157.07L156.613 18.6068L152.235 40.0364H148.846L144.392 18.5305L143.972 40.0364H139.747L140.28 9.20508Z" fill="#31C580"/>
<path d="M163.996 9.20508H176.936V13.1636H169.589V22.0314H175.375V25.9517H169.589V36.1898H177.013V40.0339H163.996V9.20508Z" fill="#31C580"/>
<path d="M31.0147 11.2802V34.7184C31.0147 35.3845 30.4757 35.9235 29.8096 35.9235H5.16637C3.85704 35.9235 2.79688 36.9836 2.79688 38.2929C2.79688 39.6023 3.85704 40.6624 5.16637 40.6624H35.7562V11.2777C35.7562 9.96837 34.696 8.9082 33.3867 8.9082C32.0774 8.9082 31.0172 9.96837 31.0172 11.2777L31.0147 11.2802Z" fill="#004C99"/>
<path d="M29.2454 30.7985C28.953 30.7985 28.6683 30.6408 28.5183 30.3662L19.1928 13.162C18.9742 12.7603 19.1242 12.2595 19.5259 12.0408C19.9276 11.8247 20.4284 11.9722 20.6471 12.3739L29.9725 29.5781C30.1911 29.9798 30.0411 30.4807 29.6394 30.6993C29.5149 30.7679 29.3801 30.7985 29.2454 30.7985Z" fill="#004C99"/>
<path d="M26.5073 32.7306C26.314 32.7306 26.1183 32.6619 25.9606 32.5246L11.2734 19.5941C10.9301 19.2916 10.8971 18.7704 11.1996 18.4272C11.5022 18.0839 12.0234 18.0509 12.3666 18.3534L27.0539 31.2839C27.3971 31.5865 27.4301 32.1077 27.1276 32.4509C26.9649 32.6365 26.7361 32.7306 26.5073 32.7306Z" fill="#004C99"/>
<path d="M24.3459 34.6726C24.262 34.6726 24.1756 34.6599 24.0917 34.6319L5.4739 28.6065C5.03915 28.4667 4.80271 27.9989 4.94254 27.5667C5.08237 27.1319 5.55017 26.8929 5.98237 27.0353L24.6002 33.0607C25.0349 33.2006 25.2714 33.6684 25.1315 34.1006C25.0171 34.4514 24.6942 34.6726 24.3459 34.6726Z" fill="#004C99"/>
</svg>
