<svg width="100" height="25" viewBox="0 0 100 25" fill="none" xmlns="http://www.w3.org/2000/svg">
<path d="M21.6171 5.11523H25.8459C28.8488 5.11523 30.8572 6.13077 30.8572 9.51354C30.8572 11.6068 29.99 12.7706 28.3827 13.0234C30.3911 13.4034 31.3431 14.8426 31.3431 17.2522C31.3431 20.5305 29.7358 22.2424 26.5635 22.2424H21.6157V5.11523H21.6171ZM25.8036 12.1152C27.6652 12.1152 28.151 11.2904 28.151 9.55591C28.151 7.82145 27.2626 7.2932 25.3601 7.2932H24.7259V12.1152H25.805H25.8036ZM25.9307 20.046C27.8332 20.046 28.3629 19.1576 28.3629 17.2339C28.3629 15.2042 27.6863 14.2734 25.8248 14.2734H24.7245V20.046H25.9293H25.9307Z" fill="#004C99"/>
<path d="M32.106 16.8716V10.4436C32.106 6.97609 33.3743 4.92383 37.0537 4.92383C40.7331 4.92383 41.9803 6.97468 41.9803 10.4436V16.8716C41.9803 20.3179 40.7119 22.4761 37.0537 22.4761C33.3955 22.4761 32.106 20.3405 32.106 16.8716ZM38.8093 17.6117V9.72326C38.8093 8.28541 38.5763 7.20631 37.0537 7.20631C35.5311 7.20631 35.2769 8.28541 35.2769 9.72326V17.6117C35.2769 19.0283 35.5099 20.171 37.0537 20.171C38.5975 20.171 38.8093 19.0283 38.8093 17.6117Z" fill="#004C99"/>
<path d="M42.9971 16.8716V10.4436C42.9971 6.97609 44.2654 4.92383 47.9462 4.92383C51.627 4.92383 52.8728 6.97468 52.8728 10.4436V16.8716C52.8728 20.3179 51.6044 22.4761 47.9462 22.4761C44.288 22.4761 42.9971 20.3405 42.9971 16.8716ZM49.7005 17.6117V9.72326C49.7005 8.28541 49.4674 7.20631 47.9448 7.20631C46.4222 7.20631 46.168 8.28541 46.168 9.72326V17.6117C46.168 19.0283 46.401 20.171 47.9448 20.171C49.4886 20.171 49.7005 19.0283 49.7005 17.6117Z" fill="#004C99"/>
<path d="M54.1635 5.11523H57.2723V12.6435L60.6762 5.11523H63.6579L60.3796 12.7494L63.9954 22.2438H60.8867L58.0322 14.4613L57.2709 15.7508V22.2424H54.1621V5.11523H54.1635Z" fill="#004C99"/>
<path d="M66.5355 7.42032H63.8081V5.11523H72.3307V7.42032H69.6669V22.2438H66.5369V7.42032H66.5355Z" fill="#31C580"/>
<path d="M72.9648 5.11523H76.0524V22.2438H72.9648V5.11523Z" fill="#31C580"/>
<path d="M77.9338 5.11523H81.1697L83.6019 16.9782L86.1188 5.11523H89.27L89.5878 22.2438H87.2615L87.0073 10.3384L84.5751 22.2438H82.6923L80.2177 10.296L79.9847 22.2438H77.6372L77.9338 5.11523Z" fill="#31C580"/>
<path d="M91.1089 5.11523H98.2982V7.31439H94.2162V12.2409H97.4309V14.4189H94.2162V20.1068H98.3405V22.2424H91.1089V5.11523Z" fill="#31C580"/>
<path d="M17.2298 6.26897V19.2902C17.2298 19.6602 16.9303 19.9596 16.5603 19.9596H2.86961C2.14221 19.9596 1.55322 20.5486 1.55322 21.276C1.55322 22.0034 2.14221 22.5924 2.86961 22.5924H19.864V6.26756C19.864 5.54015 19.275 4.95117 18.5476 4.95117C17.8202 4.95117 17.2312 5.54015 17.2312 6.26756L17.2298 6.26897Z" fill="#004C99"/>
<path d="M16.2466 17.1129C16.0841 17.1129 15.9259 17.0253 15.8426 16.8727L10.6618 7.31483C10.5403 7.09167 10.6237 6.81342 10.8468 6.69195C11.07 6.5719 11.3483 6.65382 11.4697 6.87698L16.6505 16.4349C16.772 16.6581 16.6887 16.9363 16.4655 17.0578C16.3963 17.0959 16.3214 17.1129 16.2466 17.1129Z" fill="#004C99"/>
<path d="M14.7257 18.1862C14.6183 18.1862 14.5096 18.1481 14.422 18.0718L6.26238 10.8882C6.0717 10.7201 6.05334 10.4306 6.22142 10.2399C6.3895 10.0492 6.67904 10.0309 6.86972 10.199L15.0293 17.3826C15.22 17.5507 15.2384 17.8402 15.0703 18.0309C14.9799 18.134 14.8528 18.1862 14.7257 18.1862Z" fill="#004C99"/>
<path d="M13.5251 19.2639C13.4785 19.2639 13.4305 19.2568 13.3839 19.2413L3.04067 15.8938C2.79915 15.8161 2.66779 15.5562 2.74548 15.3161C2.82316 15.0746 3.08305 14.9418 3.32316 15.0209L13.6664 18.3684C13.9079 18.4461 14.0393 18.7059 13.9616 18.9461C13.898 19.141 13.7186 19.2639 13.5251 19.2639Z" fill="#004C99"/>
</svg>
